#!OML:ASF F:\VICON\USERDATA\INSTALL\rory3\rory3.ASF
:FULLY-SPECIFIED
:DEGREES
672
root -1.68142 16.6102 22.2021 -152.403 -13.2388 -183.296
lowerback -26.8308 2.80029 -4.59641
upperback -25.3459 -5.67973 -4.95195
thorax -14.5046 -6.64923 -2.70257
lowerneck -20.2091 2.95986 -9.02975
upperneck -37.2495 -2.66092 4.99715
head -8.93777 -2.49799 3.74106
rclavicle 1.47101e-014 3.06128e-014
rhumerus -52.2149 -38.4358 52.7915
rradius 13.935
rwrist 90.3975
rhand 27.7846 -8.29205
rfingers 7.12502
rthumb 51.7046 -28.5715
lclavicle 1.47101e-014 3.06128e-014
lhumerus -31.8045 -9.07934 -18.1198
lradius 17.4684
lwrist -58.1667
lhand 23.0423 29.6057
lfingers 7.12502
lthumb 47.3579 52.1126
rfemur 105.776 -188.484 -179.094
rtibia 43.8636
rfoot -55.7588 -11.241
rtoes 62.2767
lfemur -28.7916 2.75407 -37.1791
ltibia 29.6746
lfoot -39.0804 25.4138
ltoes -8.36918
673
root -1.62001 16.5952 22.2799 -150.074 -14.6132 -184.462
lowerback -27.5292 1.9935 -5.94445
upperback -25.7895 -6.91921 -5.00417
thorax -14.8549 -7.23547 -2.16484
lowerneck -20.0408 3.00282 -9.22336
upperneck -37.6863 -2.72129 5.11516
head -9.1327 -2.52389 3.84695
rclavicle -1.27222e-014 1.55052e-014
rhumerus -50.0424 -37.0732 49.8983
rradius 13.7954
rwrist 87.0575
rhand 28.2154 -8.66877
rfingers 7.12502
rthumb 52.0956 -28.7175
lclavicle -1.27222e-014 1.55052e-014
lhumerus -31.6404 -8.29282 -18.279
lradius 17.4979
lwrist -58.6599
lhand 22.9068 29.1983
lfingers 7.12502
lthumb 47.2327 51.7613
rfemur 103.923 -185.984 -179.565
rtibia 43.7725
rfoot -55.8615 -12.4395
rtoes 62.0712
lfemur -31.266 1.41611 -37.8632
ltibia 29.9316
lfoot -37.6959 25.1331
ltoes -9.19535
674
root -1.60806 16.5974 22.2764 -150.173 -14.4809 -184.533
lowerback -27.5777 1.92987 -5.9584
upperback -25.5772 -6.83985 -4.97043
thorax -14.5388 -7.14574 -2.15238
lowerneck -20.021 3.00677 -9.38686
upperneck -37.9653 -2.79477 5.22902
head -9.24368 -2.56274 3.93623
rclavicle 4.6118e-014 9.85972e-014
rhumerus -49.0579 -36.534 48.4367
rradius 13.7711
rwrist 85.1802
rhand 28.6965 -7.85431
rfingers 7.12502
rthumb 52.5313 -27.639
lclavicle 4.6118e-014 9.85972e-014
lhumerus -31.4181 -7.46044 -18.4068
lradius 17.4505
lwrist -58.8192
lhand 22.6869 29.0867
lfingers 7.12502
lthumb 47.0294 51.74
rfemur 103.938 -186.045 -179.551
rtibia 43.8256
rfoot -55.5678 -14.1647
rtoes 61.7
lfemur -31.1287 1.74869 -37.9918
ltibia 29.8691
lfoot -37.4905 25.0755
ltoes -9.47426
675
root -1.59627 16.6026 22.279 -150.436 -14.4494 -184.808
lowerback -27.2683 1.78151 -6.09546
upperback -25.3378 -6.82847 -4.98572
thorax -14.3598 -7.04536 -2.10773
lowerneck -20.2155 3.00646 -9.41975
upperneck -37.9594 -2.84147 5.17158
head -9.21687 -2.59356 3.91987
rclavicle -1.03368e-014 1.19271e-015
rhumerus -47.9128 -35.4841 46.5056
rradius 13.7256
rwrist 82.5424
rhand 28.6984 -7.36234
rfingers 7.12502
rthumb 52.533 -27.146
lclavicle -1.03368e-014 1.19271e-015
lhumerus -31.134 -6.0408 -18.7241
lradius 17.3502
lwrist -59.6122
lhand 22.4766 28.8765
lfingers 7.12502
lthumb 46.8349 51.6151
rfemur 104.228 -185.976 -179.627
rtibia 43.8881
rfoot -55.3531 -15.3383
rtoes 61.4677
lfemur -30.7853 2.14049 -38.2964
ltibia 29.9
lfoot -37.1149 24.9161
ltoes -10.0682
676
root -1.58181 16.6056 22.2838 -150.653 -14.3843 -185.063
lowerback -26.8731 1.72414 -6.26455
upperback -25.2295 -6.80294 -5.07572
thorax -14.4063 -6.96878 -2.09352
lowerneck -20.0616 2.96443 -9.38407
upperneck -37.9082 -2.87328 5.16484
head -9.21239 -2.61351 3.9112
rclavicle -3.1408e-014 6.36111e-015
rhumerus -44.941 -30.8177 41.2597
rradius 13.6023
rwrist 75.3865
rhand 28.358 -8.1366
rfingers 7.12502
rthumb 52.2248 -28.1077
lclavicle -3.1408e-014 6.36111e-015
lhumerus -30.7727 -5.97386 -18.5928
lradius 17.3489
lwrist -59.2352
lhand 22.4913 29.1006
lfingers 7.12502
lthumb 46.8484 51.8333
rfemur 104.463 -185.95 -179.692
rtibia 43.9361
rfoot -55.4363 -15.3298
rtoes 61.5432
lfemur -30.4803 2.35831 -38.536
ltibia 29.8453
lfoot -36.9353 24.7712
ltoes -10.204
677
root -1.57015 16.6086 22.2931 -150.707 -14.4438 -184.909
lowerback -26.702 1.78529 -6.00404
upperback -25.2216 -6.73473 -5.05557
thorax -14.47 -6.95438 -2.19002
lowerneck -19.7548 2.90189 -9.50577
upperneck -37.8239 -2.82269 5.3535
head -9.21297 -2.58105 4.00185
rclavicle -1.66979e-014 3.61788e-014
rhumerus -42.2186 -25.2433 35.8925
rradius 13.6147
rwrist 67.4928
rhand 28.005 -9.11058
rfingers 7.12502
rthumb 51.9047 -29.2726
lclavicle -1.66979e-014 3.61788e-014
lhumerus -30.571 -6.53587 -18.2105
lradius 17.4158
lwrist -58.3999
lhand 22.3033 29.5138
lfingers 7.12502
lthumb 46.6744 52.3221
rfemur 104.458 -185.971 -179.366
rtibia 43.9016
rfoot -55.4999 -15.2709
rtoes 61.5972
lfemur -30.5838 2.48039 -38.3534
ltibia 29.9042
lfoot -36.8106 24.8005
ltoes -10.5511
678
root -1.56268 16.6045 22.3073 -150.455 -14.5633 -184.863
lowerback -26.8094 1.75704 -5.77597
upperback -25.1772 -6.7539 -4.96683
thorax -14.3521 -6.98397 -2.2362
lowerneck -19.5303 2.96605 -9.65958
upperneck -37.9793 -2.76283 5.37801
head -9.31242 -2.54581 4.0533
rclavicle -1.66979e-014 -1.35174e-014
rhumerus -40.835 -22.6242 33.1699
rradius 13.6747
rwrist 63.2015
rhand 27.5691 -9.18025
rfingers 7.12502
rthumb 51.5087 -29.5732
lclavicle -1.66979e-014 -1.35174e-014
lhumerus -30.5482 -6.49129 -18.0517
lradius 17.3617
lwrist -58.2671
lhand 22.1487 29.5446
lfingers 7.12502
lthumb 46.5312 52.4146
rfemur 104.221 -185.731 -179.18
rtibia 43.8273
rfoot -55.5937 -14.9842
rtoes 61.6341
lfemur -30.9899 2.51318 -38.3246
ltibia 30.0382
lfoot -36.6671 24.6126
ltoes -10.5172
679
root -1.5457 16.5962 22.3226 -150.142 -14.5385 -184.972
lowerback -26.9759 1.66148 -5.88589
upperback -25.0534 -6.7577 -4.88736
thorax -14.0984 -6.94324 -2.12739
lowerneck -19.5004 2.98376 -9.83281
upperneck -38.1309 -2.80045 5.35676
head -9.38102 -2.55797 4.08895
rclavicle -1.07344e-014 6.32135e-014
rhumerus -40.1155 -20.9172 31.4194
rradius 13.8445
rwrist 60.059
rhand 27.3366 -9.09723
rfingers 7.12502
rthumb 51.2973 -29.6112
lclavicle -1.07344e-014 6.32135e-014
lhumerus -30.4771 -6.54893 -17.7072
lradius 17.3353
lwrist -57.9644
lhand 22.2371 29.535
lfingers 7.12502
lthumb 46.6131 52.3698
rfemur 103.882 -185.519 -179.195
rtibia 43.7585
rfoot -55.6395 -14.7929
rtoes 61.7153
lfemur -31.4542 2.55273 -38.468
ltibia 30.1793
lfoot -36.5363 24.4119
ltoes -10.4323
680
root -1.52364 16.5948 22.3365 -149.923 -14.5739 -185.153
lowerback -27.1012 1.51493 -6.08039
upperback -24.8483 -6.7732 -4.89234
thorax -13.7712 -6.88928 -2.07583
lowerneck -19.4578 2.89678 -9.9837
upperneck -38.3088 -2.98441 5.41537
head -9.44734 -2.64866 4.15228
rclavicle -8.74653e-015 -8.54774e-014
rhumerus -39.8438 -19.8266 30.1341
rradius 14.0444
rwrist 57.8525
rhand 26.9903 -9.04724
rfingers 7.12502
rthumb 50.9819 -29.7387
lclavicle -8.74653e-015 -8.54774e-014
lhumerus -30.3104 -6.755 -17.324
lradius 17.4463
lwrist -57.4974
lhand 22.3497 29.5721
lfingers 7.12502
lthumb 46.7174 52.3618
rfemur 103.632 -185.293 -179.21
rtibia 43.7464
rfoot -55.473 -15.692
rtoes 61.5173
lfemur -31.7388 2.43512 -38.5797
ltibia 30.2432
lfoot -36.3753 24.4886
ltoes -10.8042
681
root -1.50567 16.5927 22.3482 -149.729 -14.5853 -185.439
lowerback -27.1954 1.3503 -6.27135
upperback -24.6147 -6.80191 -4.91629
thorax -13.4272 -6.84076 -2.04943
lowerneck -19.101 2.90849 -10.1682
upperneck -38.8932 -3.18948 5.4373
head -9.72805 -2.74634 4.24131
rclavicle -1.59028e-015 3.1408e-014
rhumerus -39.5696 -19.0241 28.9981
rradius 14.1932
rwrist 56.034
rhand 26.7999 -8.81011
rfingers 7.12502
rthumb 50.8083 -29.5979
lclavicle -1.59028e-015 3.1408e-014
lhumerus -30.2697 -6.94663 -16.9787
lradius 17.6021
lwrist -56.9118
lhand 22.2456 29.6234
lfingers 7.12502
lthumb 46.621 52.4548
rfemur 103.428 -185.023 -179.33
rtibia 43.7857
rfoot -55.34 -16.1766
rtoes 61.4561
lfemur -31.913 2.46241 -38.8584
ltibia 30.2228
lfoot -35.9858 24.6411
ltoes -11.4643
682
root -1.49205 16.588 22.3588 -149.689 -14.6226 -185.665
lowerback -27.1308 1.2065 -6.31394
upperback -24.3792 -6.81772 -4.92243
thorax -13.152 -6.79245 -2.06738
lowerneck -18.7614 3.01115 -10.3211
upperneck -39.3791 -3.27733 5.28831
head -9.98555 -2.77757 4.25618
rclavicle 9.54166e-015 -2.06736e-014
rhumerus -39.041 -17.1763 27.2355
rradius 14.3219
rwrist 53.0529
rhand 26.7389 -8.87279
rfingers 7.12502
rthumb 50.7526 -29.6912
lclavicle 9.54166e-015 -2.06736e-014
lhumerus -30.1902 -6.20275 -16.9746
lradius 17.7331
lwrist -57.4573
lhand 22.135 29.4564
lfingers 7.12502
lthumb 46.5186 52.3319
rfemur 103.403 -184.786 -179.375
rtibia 43.8239
rfoot -55.3521 -15.8905
rtoes 61.5621
lfemur -31.9129 2.6278 -39.0983
ltibia 30.1873
lfoot -35.7747 24.4663
ltoes -11.4966
683
root -1.47917 16.5853 22.3659 -149.551 -14.6615 -185.837
lowerback -27.2259 1.06915 -6.39163
upperback -24.1815 -6.83819 -4.87434
thorax -12.8471 -6.75149 -2.01771
lowerneck -18.4313 3.0783 -10.5221
upperneck -39.741 -3.35312 5.16292
head -10.1917 -2.79342 4.28032
rclavicle 5.96354e-015 -9.93923e-015
rhumerus -38.778 -16.6603 26.461
rradius 14.4166
rwrist 51.8184
rhand 26.6264 -8.79169
rfingers 7.12502
rthumb 50.65 -29.6663
lclavicle 5.96354e-015 -9.93923e-015
lhumerus -30.1348 -5.68015 -16.7688
lradius 17.8094
lwrist -57.8667
lhand 22.1498 29.4573
lfingers 7.12502
lthumb 46.5322 52.3269
rfemur 103.277 -184.546 -179.39
rtibia 43.8197
rfoot -55.2029 -16.3237
rtoes 61.5076
lfemur -32.0547 2.8518 -39.3055
ltibia 30.2142
lfoot -35.5518 24.2521
ltoes -11.4958
684
root -1.4695 16.582 22.3745 -149.297 -14.7064 -185.797
lowerback -27.4772 1.02213 -6.25172
upperback -24.0186 -6.79118 -4.78507
thorax -12.5142 -6.71873 -2.03949
lowerneck -18.2423 3.01589 -10.8489
upperneck -39.8808 -3.46168 5.22932
head -10.2725 -2.82053 4.38149
rclavicle 6.75868e-015 -3.77691e-014
rhumerus -38.7298 -17.2299 26.3348
rradius 14.4484
rwrist 51.7893
rhand 26.2707 -8.58766
rfingers 7.12502
rthumb 50.3252 -29.638
lclavicle 6.75868e-015 -3.77691e-014
lhumerus -30.1916 -6.03099 -16.2983
lradius 17.9123
lwrist -57.6677
lhand 22.0138 29.5441
lfingers 7.12502
lthumb 46.4062 52.4675
rfemur 102.997 -184.351 -179.247
rtibia 43.7442
rfoot -55.0995 -16.584
rtoes 61.5116
lfemur -32.4633 2.93543 -39.2963
ltibia 30.3264
lfoot -35.3294 24.3347
ltoes -12.2944
685
root -1.45759 16.5749 22.3829 -149.065 -14.7719 -185.759
lowerback -27.7165 0.954788 -6.11467
upperback -23.7509 -6.70187 -4.72576
thorax -12.0591 -6.6451 -2.10022
lowerneck -18.406 2.85622 -11.2122
upperneck -39.8923 -3.65179 5.39139
head -10.238 -2.8979 4.51016
rclavicle -1.74931e-014 1.63003e-014
rhumerus -39.0455 -18.4881 26.6343
rradius 14.4449
rwrist 52.244
rhand 25.8772 -8.27714
rfingers 7.12502
rthumb 49.9653 -29.5181
lclavicle -1.74931e-014 1.63003e-014
lhumerus -30.3047 -6.48516 -15.8811
lradius 18.057
lwrist -57.4444
lhand 21.804 28.8168
lfingers 7.12502
lthumb 46.2118 51.8226
rfemur 102.837 -184.15 -179.091
rtibia 43.6346
rfoot -55.2483 -14.8388
rtoes 61.9429
lfemur -32.871 3.12441 -39.313
ltibia 30.4802
lfoot -35.1981 24.2076
ltoes -12.7395
686
root -1.44158 16.5711 22.3929 -148.985 -14.936 -185.844
lowerback -27.7749 0.794566 -6.07032
upperback -23.4167 -6.68061 -4.70561
thorax -11.6095 -6.5719 -2.15624
lowerneck -18.493 2.68934 -11.5282
upperneck -39.8887 -3.84016 5.56129
head -10.2052 -2.98062 4.63348
rclavicle -3.02153e-014 -5.64548e-014
rhumerus -39.6512 -20.5291 27.4628
rradius 14.4581
rwrist 53.5629
rhand 25.3922 -8.08647
rfingers 7.12502
rthumb 49.521 -29.5571
lclavicle -3.02153e-014 -5.64548e-014
lhumerus -30.6015 -7.792 -15.1385
lradius 18.462
lwrist -56.1869
lhand 21.3305 28.358
lfingers 7.12502
lthumb 45.7725 51.5467
rfemur 102.883 -183.879 -178.968
rtibia 43.553
rfoot -55.1744 -13.9467
rtoes 62.1348
lfemur -33.0087 3.23033 -39.3378
ltibia 30.6192
lfoot -35.3532 23.6318
ltoes -12.1476
